<svg width="223" height="38" viewBox="0 0 223 38" fill="none" xmlns="http://www.w3.org/2000/svg">
<path d="M10.5913 7.6C11.3646 7.6 12.1379 7.66667 12.9113 7.8C13.7113 7.93333 14.4313 8.12 15.0713 8.36C15.7113 8.6 16.2313 8.89333 16.6313 9.24C17.0313 9.58667 17.2313 9.98667 17.2313 10.44C17.2313 11.6133 16.5646 12.2 15.2313 12.2C14.9113 12.2 14.6046 12.16 14.3113 12.08C14.0446 11.9733 13.7246 11.88 13.3513 11.8C12.9779 11.6933 12.5113 11.6 11.9513 11.52C11.3913 11.4133 10.6979 11.36 9.87125 11.36C8.11125 11.36 6.75125 11.96 5.79125 13.16C4.83125 14.36 4.35125 15.92 4.35125 17.84C4.35125 19.9467 4.83125 21.64 5.79125 22.92C6.77792 24.2 8.16458 24.84 9.95125 24.84C11.0713 24.84 11.9779 24.7467 12.6713 24.56C13.3646 24.3733 13.9246 24.16 14.3513 23.92C14.8046 23.68 15.1646 23.4667 15.4313 23.28C15.7246 23.0933 16.0446 23 16.3913 23C16.8713 23 17.2446 23.1067 17.5113 23.32C17.8046 23.5067 17.9513 23.9067 17.9513 24.52C17.9513 25.16 17.6979 25.72 17.1913 26.2C16.7113 26.68 16.0979 27.08 15.3513 27.4C14.6046 27.72 13.7913 27.96 12.9113 28.12C12.0579 28.28 11.2713 28.36 10.5513 28.36C7.32458 28.36 4.79125 27.4667 2.95125 25.68C1.11125 23.8933 0.19125 21.36 0.19125 18.08C0.19125 16.6667 0.404583 15.3333 0.83125 14.08C1.28458 12.8 1.95125 11.68 2.83125 10.72C3.71125 9.76 4.79125 9 6.07125 8.44C7.37792 7.88 8.88458 7.6 10.5913 7.6ZM30.5941 7.72C32.1141 7.72 33.4741 7.96 34.6741 8.44C35.8741 8.89333 36.8874 9.54667 37.7141 10.4C38.5674 11.2533 39.2207 12.2933 39.6741 13.52C40.1274 14.7467 40.3541 16.12 40.3541 17.64C40.3541 19.32 40.0874 20.8267 39.5541 22.16C39.0474 23.4933 38.3274 24.6267 37.3941 25.56C36.4874 26.4933 35.3941 27.2133 34.1141 27.72C32.8607 28.2267 31.4874 28.48 29.9941 28.48C28.3674 28.48 26.9274 28.2 25.6741 27.64C24.4474 27.08 23.4074 26.32 22.5541 25.36C21.7274 24.4 21.1007 23.2933 20.6741 22.04C20.2474 20.7867 20.0341 19.4667 20.0341 18.08C20.0341 16.56 20.2741 15.1733 20.7541 13.92C21.2607 12.64 21.9674 11.5467 22.8741 10.64C23.8074 9.70667 24.9274 8.98667 26.2341 8.48C27.5407 7.97333 28.9941 7.72 30.5941 7.72ZM30.1541 24.8C31.2474 24.8 32.1807 24.6133 32.9541 24.24C33.7274 23.84 34.3541 23.32 34.8341 22.68C35.3407 22.04 35.7007 21.32 35.9141 20.52C36.1541 19.6933 36.2741 18.84 36.2741 17.96C36.2741 17.0533 36.1541 16.2133 35.9141 15.44C35.7007 14.64 35.3541 13.9467 34.8741 13.36C34.4207 12.7733 33.8207 12.32 33.0741 12C32.3541 11.6533 31.4874 11.48 30.4741 11.48C29.4341 11.48 28.5274 11.6533 27.7541 12C26.9807 12.3467 26.3274 12.8267 25.7941 13.44C25.2874 14.0267 24.9007 14.7333 24.6341 15.56C24.3674 16.3867 24.2341 17.28 24.2341 18.24C24.2341 20.1867 24.7274 21.7733 25.7141 23C26.7274 24.2 28.2074 24.8 30.1541 24.8ZM70.8922 26.8C70.7322 26.3467 70.6255 25.84 70.5722 25.28C70.5455 24.72 70.5322 24.0267 70.5322 23.2C70.5322 22.6133 70.5322 22.16 70.5322 21.84C70.5589 21.4933 70.5722 21.2 70.5722 20.96C70.5722 20.6933 70.5722 20.44 70.5722 20.2C70.5989 19.9333 70.6122 19.5733 70.6122 19.12C70.6122 18.1867 70.5855 17.2533 70.5322 16.32C70.5055 15.36 70.3722 14.5067 70.1322 13.76C69.8922 12.9867 69.5189 12.36 69.0122 11.88C68.5055 11.4 67.7722 11.16 66.8122 11.16C65.1855 11.16 63.9189 11.9333 63.0122 13.48C62.1055 15.0267 61.5589 17.4933 61.3722 20.88C61.3189 21.9467 61.2922 22.92 61.2922 23.8C61.2922 24.68 61.2389 25.44 61.1322 26.08C61.0255 26.6933 60.8255 27.1733 60.5322 27.52C60.2655 27.8667 59.8122 28.04 59.1722 28.04C58.5855 28.04 58.1589 27.8933 57.8922 27.6C57.6255 27.28 57.4255 26.8133 57.2922 26.2C57.1855 25.5867 57.1189 24.84 57.0922 23.96C57.0922 23.08 57.0522 22.0533 56.9722 20.88C56.8922 19.6 56.7589 18.3733 56.5722 17.2C56.4122 16.0267 56.1322 15 55.7322 14.12C55.3589 13.2133 54.8389 12.4933 54.1722 11.96C53.5322 11.4267 52.7055 11.16 51.6922 11.16C50.7322 11.16 49.9855 11.4 49.4522 11.88C48.9455 12.3333 48.5722 12.9467 48.3322 13.72C48.0922 14.4667 47.9455 15.32 47.8922 16.28C47.8655 17.2133 47.8522 18.16 47.8522 19.12C47.8522 19.6 47.8522 19.96 47.8522 20.2C47.8789 20.4133 47.8922 20.6133 47.8922 20.8C47.8922 20.9867 47.8922 21.2267 47.8922 21.52C47.9189 21.8133 47.9322 22.2667 47.9322 22.88C47.9322 23.76 47.9055 24.52 47.8522 25.16C47.8255 25.8 47.7322 26.3467 47.5722 26.8C47.3855 27.3333 47.1322 27.6667 46.8122 27.8C46.4922 27.9067 46.1989 27.96 45.9322 27.96C45.1055 27.96 44.5722 27.6667 44.3322 27.08C44.0922 26.4933 43.9589 25.64 43.9322 24.52C43.9322 23.9067 43.9189 23.2267 43.8922 22.48C43.8922 21.7067 43.8922 20.7733 43.8922 19.68C43.8922 19.1467 43.8922 18.68 43.8922 18.28C43.8922 17.88 43.8922 17.4933 43.8922 17.12C43.9189 16.7467 43.9322 16.3733 43.9322 16C43.9589 15.6 43.9855 15.1467 44.0122 14.64C44.0922 13.0133 44.3855 11.72 44.8922 10.76C45.3989 9.77333 45.9989 9.02667 46.6922 8.52C47.3855 8.01333 48.1322 7.69333 48.9322 7.56C49.7322 7.4 50.4655 7.32 51.1322 7.32C52.5722 7.32 53.7855 7.53333 54.7722 7.96C55.7589 8.38667 56.5589 8.94667 57.1722 9.64C57.8122 10.3333 58.2789 11.12 58.5722 12C58.8922 12.88 59.1055 13.7733 59.2122 14.68C59.3189 13.8 59.5322 12.9333 59.8522 12.08C60.1989 11.2 60.6922 10.4267 61.3322 9.76C61.9989 9.06667 62.8522 8.50667 63.8922 8.08C64.9322 7.65333 66.2122 7.44 67.7322 7.44C68.4522 7.44 69.1855 7.52 69.9322 7.68C70.7055 7.81333 71.4122 8.13333 72.0522 8.64C72.6922 9.14667 73.2255 9.88 73.6522 10.84C74.1055 11.7733 74.3722 13.04 74.4522 14.64C74.4789 15.1467 74.4922 15.6 74.4922 16C74.5189 16.3733 74.5322 16.7467 74.5322 17.12C74.5589 17.4933 74.5722 17.88 74.5722 18.28C74.5722 18.68 74.5722 19.1467 74.5722 19.68C74.5722 20.7733 74.5589 21.7067 74.5322 22.48C74.5322 23.2267 74.5322 23.9067 74.5322 24.52C74.5322 25.0267 74.5055 25.4933 74.4522 25.92C74.4255 26.3467 74.3455 26.7067 74.2122 27C74.0789 27.2933 73.8789 27.5333 73.6122 27.72C73.3722 27.88 73.0122 27.96 72.5322 27.96C72.0789 27.96 71.7322 27.88 71.4922 27.72C71.2522 27.5333 71.0522 27.2267 70.8922 26.8ZM79.5247 25.52C79.4714 24.5333 79.418 23.4133 79.3647 22.16C79.338 20.88 79.3247 19.48 79.3247 17.96C79.3247 16.0667 79.338 14.4533 79.3647 13.12C79.3914 11.76 79.458 10.6533 79.5647 9.8C79.698 8.92 79.898 8.28 80.1647 7.88C80.4314 7.45333 80.8047 7.24 81.2847 7.24C81.738 7.24 82.138 7.4 82.4847 7.72C82.8314 8.04 83.0314 8.73333 83.0847 9.8C83.2447 12.6 83.3247 15.3067 83.3247 17.92C83.3247 19.2533 83.298 20.5067 83.2447 21.68C83.1914 22.8267 83.138 24.0933 83.0847 25.48C83.058 26.12 82.9914 26.6133 82.8847 26.96C82.8047 27.3067 82.6847 27.5733 82.5247 27.76C82.3647 27.9467 82.178 28.0533 81.9647 28.08C81.778 28.1333 81.5514 28.16 81.2847 28.16C80.8047 28.16 80.4047 28 80.0847 27.68C79.7647 27.3333 79.578 26.6133 79.5247 25.52ZM81.3247 -1.90735e-06C81.938 -1.90735e-06 82.498 0.239998 83.0047 0.719998C83.538 1.2 83.8047 1.77333 83.8047 2.44C83.8047 3.08 83.538 3.64 83.0047 4.12C82.4714 4.57333 81.8714 4.8 81.2047 4.8C80.6447 4.8 80.1114 4.57333 79.6047 4.12C79.1247 3.64 78.8847 3.05333 78.8847 2.36C78.8847 1.72 79.1247 1.17333 79.6047 0.719998C80.1114 0.239998 80.6847 -1.90735e-06 81.3247 -1.90735e-06ZM97.6681 10.96C96.6815 10.96 95.7881 11.12 94.9881 11.44C94.2148 11.76 93.3348 12.24 92.3481 12.88C92.3481 13.44 92.3481 14.2667 92.3481 15.36C92.3481 16.4267 92.3348 17.6 92.3081 18.88C92.2815 20.1333 92.2548 21.3733 92.2281 22.6C92.2015 23.8267 92.1481 24.8533 92.0681 25.68C92.0148 26.2133 91.9481 26.64 91.8681 26.96C91.8148 27.2533 91.7215 27.48 91.5881 27.64C91.4815 27.8 91.3215 27.9067 91.1081 27.96C90.9215 27.9867 90.6681 28 90.3481 28C90.0281 28 89.7615 27.9867 89.5481 27.96C89.3615 27.9067 89.2015 27.8133 89.0681 27.68C88.9348 27.52 88.8281 27.2933 88.7481 27C88.6681 26.7067 88.6015 26.3067 88.5481 25.8C88.4948 25.32 88.4415 24.68 88.3881 23.88C88.3615 23.08 88.3348 22.2133 88.3081 21.28C88.2815 20.32 88.2548 19.36 88.2281 18.4C88.2281 17.4133 88.2281 16.5067 88.2281 15.68C88.2281 14.32 88.2415 13.2133 88.2681 12.36C88.3215 11.5067 88.4015 10.7467 88.5081 10.08C88.6681 8.96 88.8815 8.25333 89.1481 7.96C89.4148 7.66667 89.7748 7.52 90.2281 7.52C90.8948 7.52 91.3881 7.70667 91.7081 8.08C92.0548 8.45333 92.2681 9.06667 92.3481 9.92C93.3348 9.06667 94.3881 8.38667 95.5081 7.88C96.6548 7.37333 97.8281 7.12 99.0281 7.12C100.175 7.12 101.215 7.38667 102.148 7.92C103.108 8.45333 103.895 9.32 104.508 10.52C104.881 11.24 105.161 12.04 105.348 12.92C105.535 13.7733 105.668 14.68 105.748 15.64C105.775 16.0667 105.801 16.4933 105.828 16.92C105.855 17.32 105.868 17.76 105.868 18.24C105.895 18.6933 105.908 19.2133 105.908 19.8C105.908 20.3867 105.908 21.08 105.908 21.88C105.908 22.7333 105.895 23.5333 105.868 24.28C105.841 25.0267 105.761 25.68 105.628 26.24C105.521 26.7733 105.321 27.2 105.028 27.52C104.735 27.8133 104.335 27.96 103.828 27.96C102.601 27.96 101.961 27.3733 101.908 26.2C101.908 26.12 101.908 25.7867 101.908 25.2C101.908 24.5867 101.895 23.88 101.868 23.08C101.868 22.28 101.855 21.4667 101.828 20.64C101.828 19.8133 101.815 19.1333 101.788 18.6C101.761 18.1733 101.721 17.72 101.668 17.24C101.641 16.7333 101.588 16.2267 101.508 15.72C101.455 15.2133 101.375 14.7333 101.268 14.28C101.161 13.8 101.028 13.3733 100.868 13C100.495 12.12 100.028 11.56 99.4681 11.32C98.9081 11.08 98.3081 10.96 97.6681 10.96ZM118.414 33.48C119.667 33.48 120.72 33.2267 121.574 32.72C122.454 32.24 123.16 31.5333 123.694 30.6C124.227 29.6933 124.6 28.6 124.814 27.32C125.054 26.0133 125.174 24.5467 125.174 22.92C124.934 23.7733 124.587 24.4933 124.134 25.08C123.68 25.6667 123.147 26.1467 122.534 26.52C121.947 26.8667 121.28 27.12 120.534 27.28C119.787 27.44 119.014 27.52 118.214 27.52C116.987 27.52 115.827 27.3467 114.734 27C113.64 26.6533 112.68 26.1067 111.854 25.36C111.054 24.6133 110.414 23.6667 109.934 22.52C109.454 21.3467 109.214 19.9467 109.214 18.32C109.214 16.7467 109.44 15.3067 109.894 14C110.374 12.6667 111.054 11.52 111.934 10.56C112.84 9.6 113.934 8.85333 115.214 8.32C116.494 7.78667 117.96 7.52 119.614 7.52C120.494 7.52 121.267 7.6 121.934 7.76C122.627 7.92 123.24 8.13333 123.774 8.4C124.307 8.66667 124.774 8.98667 125.174 9.36C125.6 9.73333 125.987 10.1333 126.334 10.56C127.347 11.84 128.08 13.36 128.534 15.12C128.987 16.8533 129.214 18.9467 129.214 21.4C129.214 23.2133 129.054 25.0667 128.734 26.96C128.44 28.8533 127.894 30.56 127.094 32.08C126.294 33.6267 125.187 34.88 123.774 35.84C122.36 36.8267 120.547 37.32 118.334 37.32C117.934 37.32 117.48 37.2933 116.974 37.24C116.494 37.2133 115.987 37.16 115.454 37.08C114.947 37 114.44 36.88 113.934 36.72C113.427 36.5867 112.96 36.4 112.534 36.16C112 35.8667 111.574 35.5867 111.254 35.32C110.934 35.0533 110.774 34.6133 110.774 34C110.774 33.4933 110.88 33.0267 111.094 32.6C111.334 32.2 111.734 32 112.294 32C112.56 32 112.854 32.08 113.174 32.24C113.494 32.4 113.88 32.56 114.334 32.72C114.814 32.9067 115.374 33.08 116.014 33.24C116.68 33.4 117.48 33.48 118.414 33.48ZM118.614 23.88C119.654 23.88 120.534 23.6933 121.254 23.32C122 22.92 122.6 22.4 123.054 21.76C123.534 21.12 123.88 20.4 124.094 19.6C124.334 18.8 124.454 18 124.454 17.2C124.454 16.5333 124.36 15.8667 124.174 15.2C124.014 14.5067 123.734 13.88 123.334 13.32C122.934 12.76 122.387 12.3067 121.694 11.96C121 11.6133 120.134 11.44 119.094 11.44C117.334 11.44 115.907 11.9733 114.814 13.04C113.747 14.1067 113.214 15.68 113.214 17.76C113.214 19.7067 113.694 21.2133 114.654 22.28C115.614 23.3467 116.934 23.88 118.614 23.88ZM148.238 7.12C148.798 7.12 149.504 7.17333 150.358 7.28C151.211 7.36 152.024 7.53333 152.798 7.8C153.571 8.04 154.238 8.38667 154.798 8.84C155.358 9.29333 155.638 9.86667 155.638 10.56C155.638 10.96 155.518 11.3067 155.278 11.6C155.064 11.8933 154.718 12.04 154.238 12.04C153.891 12.04 153.491 11.9867 153.038 11.88C152.611 11.7733 152.131 11.6533 151.598 11.52C151.091 11.36 150.531 11.2267 149.918 11.12C149.331 11.0133 148.704 10.96 148.038 10.96C146.918 10.96 145.998 11.1333 145.278 11.48C144.584 11.8267 144.238 12.3733 144.238 13.12C144.238 13.5467 144.358 13.9067 144.598 14.2C144.864 14.4933 145.211 14.76 145.638 15C146.091 15.2133 146.611 15.4 147.198 15.56C147.811 15.72 148.451 15.88 149.118 16.04C149.944 16.2533 150.758 16.4933 151.558 16.76C152.384 17.0267 153.118 17.4 153.758 17.88C154.398 18.3333 154.918 18.92 155.318 19.64C155.718 20.3333 155.918 21.2 155.918 22.24C155.918 24.2133 155.171 25.7867 153.678 26.96C152.184 28.1067 149.984 28.68 147.078 28.68C146.438 28.68 145.678 28.6267 144.798 28.52C143.918 28.44 143.091 28.2667 142.318 28C141.544 27.76 140.878 27.4133 140.318 26.96C139.784 26.48 139.518 25.8533 139.518 25.08C139.518 24.5467 139.638 24.1467 139.878 23.88C140.144 23.5867 140.464 23.44 140.838 23.44C141.131 23.44 141.438 23.5333 141.758 23.72C142.078 23.9067 142.464 24.1067 142.918 24.32C143.371 24.5333 143.918 24.7333 144.558 24.92C145.198 25.1067 145.984 25.2 146.918 25.2C147.264 25.2 147.718 25.1867 148.278 25.16C148.838 25.1067 149.384 24.9867 149.918 24.8C150.478 24.6133 150.944 24.36 151.318 24.04C151.718 23.6933 151.918 23.2133 151.918 22.6C151.918 22.12 151.784 21.72 151.518 21.4C151.251 21.0533 150.891 20.76 150.438 20.52C149.984 20.28 149.451 20.08 148.838 19.92C148.251 19.7333 147.624 19.5467 146.958 19.36C146.184 19.1467 145.398 18.9067 144.598 18.64C143.824 18.3733 143.118 18.0267 142.478 17.6C141.838 17.1733 141.318 16.64 140.918 16C140.518 15.3333 140.318 14.52 140.318 13.56C140.318 12.6533 140.504 11.8133 140.878 11.04C141.251 10.24 141.784 9.54667 142.478 8.96C143.171 8.37333 143.998 7.92 144.958 7.6C145.944 7.28 147.038 7.12 148.238 7.12ZM168.836 7.72C170.356 7.72 171.716 7.96 172.916 8.44C174.116 8.89333 175.13 9.54667 175.956 10.4C176.81 11.2533 177.463 12.2933 177.916 13.52C178.37 14.7467 178.596 16.12 178.596 17.64C178.596 19.32 178.33 20.8267 177.796 22.16C177.29 23.4933 176.57 24.6267 175.636 25.56C174.73 26.4933 173.636 27.2133 172.356 27.72C171.103 28.2267 169.73 28.48 168.236 28.48C166.61 28.48 165.17 28.2 163.916 27.64C162.69 27.08 161.65 26.32 160.796 25.36C159.97 24.4 159.343 23.2933 158.916 22.04C158.49 20.7867 158.276 19.4667 158.276 18.08C158.276 16.56 158.516 15.1733 158.996 13.92C159.503 12.64 160.21 11.5467 161.116 10.64C162.05 9.70667 163.17 8.98667 164.476 8.48C165.783 7.97333 167.236 7.72 168.836 7.72ZM168.396 24.8C169.49 24.8 170.423 24.6133 171.196 24.24C171.97 23.84 172.596 23.32 173.076 22.68C173.583 22.04 173.943 21.32 174.156 20.52C174.396 19.6933 174.516 18.84 174.516 17.96C174.516 17.0533 174.396 16.2133 174.156 15.44C173.943 14.64 173.596 13.9467 173.116 13.36C172.663 12.7733 172.063 12.32 171.316 12C170.596 11.6533 169.73 11.48 168.716 11.48C167.676 11.48 166.77 11.6533 165.996 12C165.223 12.3467 164.57 12.8267 164.036 13.44C163.53 14.0267 163.143 14.7333 162.876 15.56C162.61 16.3867 162.476 17.28 162.476 18.24C162.476 20.1867 162.97 21.7733 163.956 23C164.97 24.2 166.45 24.8 168.396 24.8ZM191.805 7.72C193.325 7.72 194.685 7.96 195.885 8.44C197.085 8.89333 198.098 9.54667 198.925 10.4C199.778 11.2533 200.432 12.2933 200.885 13.52C201.338 14.7467 201.565 16.12 201.565 17.64C201.565 19.32 201.298 20.8267 200.765 22.16C200.258 23.4933 199.538 24.6267 198.605 25.56C197.698 26.4933 196.605 27.2133 195.325 27.72C194.072 28.2267 192.698 28.48 191.205 28.48C189.578 28.48 188.138 28.2 186.885 27.64C185.658 27.08 184.618 26.32 183.765 25.36C182.938 24.4 182.312 23.2933 181.885 22.04C181.458 20.7867 181.245 19.4667 181.245 18.08C181.245 16.56 181.485 15.1733 181.965 13.92C182.472 12.64 183.178 11.5467 184.085 10.64C185.018 9.70667 186.138 8.98667 187.445 8.48C188.752 7.97333 190.205 7.72 191.805 7.72ZM191.365 24.8C192.458 24.8 193.392 24.6133 194.165 24.24C194.938 23.84 195.565 23.32 196.045 22.68C196.552 22.04 196.912 21.32 197.125 20.52C197.365 19.6933 197.485 18.84 197.485 17.96C197.485 17.0533 197.365 16.2133 197.125 15.44C196.912 14.64 196.565 13.9467 196.085 13.36C195.632 12.7733 195.032 12.32 194.285 12C193.565 11.6533 192.698 11.48 191.685 11.48C190.645 11.48 189.738 11.6533 188.965 12C188.192 12.3467 187.538 12.8267 187.005 13.44C186.498 14.0267 186.112 14.7333 185.845 15.56C185.578 16.3867 185.445 17.28 185.445 18.24C185.445 20.1867 185.938 21.7733 186.925 23C187.938 24.2 189.418 24.8 191.365 24.8ZM214.543 10.96C213.556 10.96 212.663 11.12 211.863 11.44C211.09 11.76 210.21 12.24 209.223 12.88C209.223 13.44 209.223 14.2667 209.223 15.36C209.223 16.4267 209.21 17.6 209.183 18.88C209.156 20.1333 209.13 21.3733 209.103 22.6C209.076 23.8267 209.023 24.8533 208.943 25.68C208.89 26.2133 208.823 26.64 208.743 26.96C208.69 27.2533 208.596 27.48 208.463 27.64C208.356 27.8 208.196 27.9067 207.983 27.96C207.796 27.9867 207.543 28 207.223 28C206.903 28 206.636 27.9867 206.423 27.96C206.236 27.9067 206.076 27.8133 205.943 27.68C205.81 27.52 205.703 27.2933 205.623 27C205.543 26.7067 205.476 26.3067 205.423 25.8C205.37 25.32 205.316 24.68 205.263 23.88C205.236 23.08 205.21 22.2133 205.183 21.28C205.156 20.32 205.13 19.36 205.103 18.4C205.103 17.4133 205.103 16.5067 205.103 15.68C205.103 14.32 205.116 13.2133 205.143 12.36C205.196 11.5067 205.276 10.7467 205.383 10.08C205.543 8.96 205.756 8.25333 206.023 7.96C206.29 7.66667 206.65 7.52 207.103 7.52C207.77 7.52 208.263 7.70667 208.583 8.08C208.93 8.45333 209.143 9.06667 209.223 9.92C210.21 9.06667 211.263 8.38667 212.383 7.88C213.53 7.37333 214.703 7.12 215.903 7.12C217.05 7.12 218.09 7.38667 219.023 7.92C219.983 8.45333 220.77 9.32 221.383 10.52C221.756 11.24 222.036 12.04 222.223 12.92C222.41 13.7733 222.543 14.68 222.623 15.64C222.65 16.0667 222.676 16.4933 222.703 16.92C222.73 17.32 222.743 17.76 222.743 18.24C222.77 18.6933 222.783 19.2133 222.783 19.8C222.783 20.3867 222.783 21.08 222.783 21.88C222.783 22.7333 222.77 23.5333 222.743 24.28C222.716 25.0267 222.636 25.68 222.503 26.24C222.396 26.7733 222.196 27.2 221.903 27.52C221.61 27.8133 221.21 27.96 220.703 27.96C219.476 27.96 218.836 27.3733 218.783 26.2C218.783 26.12 218.783 25.7867 218.783 25.2C218.783 24.5867 218.77 23.88 218.743 23.08C218.743 22.28 218.73 21.4667 218.703 20.64C218.703 19.8133 218.69 19.1333 218.663 18.6C218.636 18.1733 218.596 17.72 218.543 17.24C218.516 16.7333 218.463 16.2267 218.383 15.72C218.33 15.2133 218.25 14.7333 218.143 14.28C218.036 13.8 217.903 13.3733 217.743 13C217.37 12.12 216.903 11.56 216.343 11.32C215.783 11.08 215.183 10.96 214.543 10.96Z" fill="black" fill-opacity="0.25"/>
</svg>
