<?xml version="1.0" encoding="utf-8"?>
<!-- Generator: Adobe Illustrator 24.2.0, SVG Export Plug-In . SVG Version: 6.00 Build 0)  -->
<svg version="1.1" id="Layer_1" xmlns="http://www.w3.org/2000/svg" xmlns:xlink="http://www.w3.org/1999/xlink" x="0px" y="0px"
	 viewBox="0 0 27 26" enable-background="new 0 0 27 26" xml:space="preserve">
<g>
	<linearGradient id="SVGID_1_" gradientUnits="userSpaceOnUse" x1="-176.8733" y1="9.7159" x2="-197.7955" y2="-4.934">
		<stop  offset="0" style="stop-color:#006840"/>
		<stop  offset="0.4" style="stop-color:#007A48"/>
		<stop  offset="1" style="stop-color:#86C440"/>
	</linearGradient>
	<path fill-rule="evenodd" clip-rule="evenodd" fill="url(#SVGID_1_)" d="M-190.466-6.334c-1.843,0.374-2.518,1.209-2.452,2.411
		c0.092,1.689,1.95,4.909,2.838,6.345c1.551,2.51,3.386,4.773,5.427,6.857c1.654,1.634,2.688,1.987,4.455-0.425
		c1.507-1.986,2.9-3.964,4.095-6.427c0.524-1.083,1.008-2.264,1.441-3.589c0.465-1.547,0.296-2.916-1.216-3.924
		c1.465,0.71,2.096,2.023,2.189,3.468c0.09,1.396-0.329,2.919-0.648,4.039c-0.795,2.79-1.812,5.603-3.1,8.132
		c-0.973,1.909-2.213,4.208-3.449,5.908c-2.736,3.766-5.364,2.549-8.442,0.001c-1.951-1.615-3.828-3.662-5.438-5.896
		c-1.626-2.255-3.423-5.592-4.482-8.156c-1.452-3.513-0.323-5.312,1.471-6.452C-195.807-5.294-192.855-6.004-190.466-6.334z"/>
	<linearGradient id="SVGID_2_" gradientUnits="userSpaceOnUse" x1="-189.9962" y1="-6.4606" x2="-177.6153" y2="2.2086">
		<stop  offset="0" style="stop-color:#006840"/>
		<stop  offset="0.3" style="stop-color:#007A48"/>
		<stop  offset="1" style="stop-color:#86C440"/>
	</linearGradient>
	<path fill-rule="evenodd" clip-rule="evenodd" fill="url(#SVGID_2_)" d="M-190.529,1.678c2.851-0.426,10.259-0.887,12.857,0.46
		c0.869,0.45,0.894,1.06,0.808,1.751c0.261-0.469,0.515-0.955,0.761-1.461c0.524-1.083,1.008-2.264,1.441-3.589
		c0.465-1.547,0.296-2.916-1.216-3.924l-0.007-0.004c-0.563-0.295-1.212-0.509-1.793-0.678c-1.715-0.496-3.614-0.699-5.523-0.837
		c-0.789-0.058-1.614-0.052-2.45-0.049c-1.509,0.005-3.166,0.097-4.815,0.318c-1.842,0.374-2.517,1.209-2.451,2.411
		C-192.84-2.484-191.479,0.066-190.529,1.678z"/>
</g>
<path fill-rule="evenodd" clip-rule="evenodd" fill="#005030" d="M-197.977,32.581c1.487-0.18,2.748-0.938,3.173-3.188
	c0.271-1.439,0.233-3.757-0.17-5.113c-0.187-0.63-0.469-1.162-0.885-1.51c-0.699-0.583-1.473-0.687-2.153-0.713
	c-1.151-0.044-1.771,0.156-2.604,0.826c-0.162,0.13-0.303,0.188-0.303-0.04l-0.026-4.801l-2.659,0.044l0.012,13.763
	C-202.452,32.616-199.318,32.742-197.977,32.581L-197.977,32.581z M-269.302,32.319c0.559,0,0.449,0.05,0.79-0.417
	c2.313-3.171,4.5-9.932,4.47-13.704c-1.075-0.046-2.163,0.131-3.254,0.393c-1.045,6.186-1.961,7.82-3.631,10.977l0,0l0,0
	c-1.67-3.156-2.586-4.79-3.631-10.977c-1.09-0.262-2.179-0.439-3.253-0.393c-0.03,3.773,2.157,10.533,4.469,13.704
	c0.34,0.467,0.23,0.417,0.79,0.417H-269.302L-269.302,32.319z M-192.856,22.566l0.259,2.415c1.053-0.101,1.914-0.378,3.017-0.457
	c1.663-0.06,2.725-0.1,2.672,1.105c-1.243-0.005-2.495,0-3.787,0.011c-1.567,0.014-2.87,0.759-2.697,3.944
	c0.208,3.825,4.75,3.545,6.823,2.011v0.858h2.411c-0.064-3.905,0.22-8.008-0.484-9.116C-185.987,21.22-190.39,21.997-192.856,22.566
	L-192.856,22.566z M-249.648,31.995c-0.089-0.788-0.179-1.576-0.268-2.364c-1.09,0.204-2.96,0.479-4.061,0.441
	c-1.27-0.041-1.743-0.651-1.737-2.462c0.403,0.456,0.968,0.78,1.68,0.787c1.658,0.018,3.208,0.046,4.842-0.015
	c0.073-3.015,0.334-5.644-2.677-6.286c-1.224-0.261-2.846-0.256-4.007,0.089c-1.274,0.378-1.9,0.983-2.266,2.247
	c-0.683,2.364-0.491,5.867,1.029,7.219C-255.367,33.202-251.848,32.649-249.648,31.995L-249.648,31.995z M-254.495,24.434h1.33
	c0.664,0,1.207,0.543,1.207,1.207v0.535h-3.744v-0.535C-255.702,24.977-255.159,24.434-254.495,24.434L-254.495,24.434z
	 M-169.457,32.433l0.083-4.427c0.005-0.27,0.246,0.093,0.312,0.201c0.877,1.471,1.688,2.578,2.989,3.885
	c0.367,0.367,0.442,0.341,1.095,0.341h2.79c-2.036-1.685-3.168-3.028-4.254-5.071c-0.218-0.471-0.207-0.417,0.104-0.857
	c0.404-0.466,0.913-1.095,1.475-1.735l2.377-2.798c0.012-0.022,0.023-0.044,0.033-0.064h-2.527c-0.464,0-0.447-0.071-0.774,0.281
	c-0.962,1.039-2.065,2.255-2.955,3.236c-0.111,0.122-0.24,0.21-0.352,0.291c-0.366,0.263-0.3,0.193-0.302-0.184l-0.023-7.52
	l-2.692,0.02l-0.034,14.402H-169.457L-169.457,32.433z M-231.951,32.087l-0.237-2.348c-1.214,0.102-2.496,0.436-3.79,0.29
	c-1.29-0.145-1.449-0.827-1.461-1.876c-0.007-0.635-0.026-1.35,0.011-1.976c0.05-0.858,0.303-1.413,1.451-1.542
	c1.294-0.145,2.576,0.19,3.79,0.29l0.237-2.348c-4.629-1.094-7.516-0.548-8.162,3.041c-0.135,0.75-0.074,3.224,0.11,3.928
	C-239.183,32.685-236.356,33.128-231.951,32.087L-231.951,32.087z M-246.48,22.057c-0.564,0-1.128,0-1.693,0
	c-0.005,0.829-0.01,1.659-0.014,2.487c0.583,0.004,1.123,0.008,1.707,0.012c0.003,0.841-0.002,1.733-0.005,2.578
	c-0.003,0.89-0.01,1.723-0.005,2.446c0.006,1.054,0.207,1.957,0.804,2.434c0.251,0.199,0.61,0.304,1.053,0.354
	c1.045,0.119,2.36,0.062,3.255-0.229c-0.029-0.712-0.058-1.424-0.087-2.136c-1.04,0.104-2.316,0.327-2.314-0.205
	c0.001-1.814,0.002-3.421,0.003-5.235c0.833-0.004,1.625-0.007,2.459-0.011c-0.002-0.826-0.004-1.653-0.005-2.48
	c-0.817-0.004-1.635-0.008-2.452-0.012c-0.001-0.824-0.002-1.648-0.003-2.473c-0.903,0.001-1.805,0.003-2.708,0.004
	C-246.482,20.412-246.481,21.234-246.48,22.057L-246.48,22.057z M-263.007,32.432l2.631,0.051l0.096-10.386l-2.738,0.014
	L-263.007,32.432L-263.007,32.432z M-227.144,21.917h2.361c1.844,0,3.352,1.509,3.352,3.354v3.966c0,1.845-1.508,3.354-3.352,3.354
	h-2.361c-1.844,0-3.353-1.509-3.353-3.354V25.27C-230.496,23.426-228.988,21.917-227.144,21.917L-227.144,21.917z M-226.628,24.434
	c-0.664,0-1.207,0.543-1.207,1.207v3.226c0,0.663,0.543,1.206,1.207,1.206h1.33c0.664,0,1.207-0.543,1.207-1.206v-3.226
	c0-0.664-0.543-1.207-1.207-1.207H-226.628L-226.628,24.434z M-217.035,32.432c0.024-2.646,0.049-5.292,0.073-7.938
	c0.659-0.001,1.318-0.003,1.977-0.003c0.524,0.006,1.042,0.34,1.042,0.903v0.365l0.007,6.672h2.656l0.074-7.946
	c0.723-0.001,1.445-0.001,2.168-0.002c0.638-0.002,1.056,0.358,1.057,0.972l0.01,6.976h2.632l0.09-7.504
	c0.019-1.596-0.86-2.914-2.666-2.897c-0.574,0.006-1.148,0.011-1.722,0.017c-0.865,0.008-1.325,0.165-1.858,0.719
	c-0.398,0.414-0.204,0.418-0.568,0.03c-0.534-0.57-1.175-0.764-1.987-0.764c-0.404,0-0.81,0-1.214,0
	c-0.737,0.029-1.208,0.263-1.762,0.822c-0.44,0.445-0.388,0.593-0.388-0.105c0-0.216,0-0.433,0-0.649c-0.001,0-0.001,0-0.001,0l0,0
	c-0.747,0.003-1.516,0.007-2.263,0.011c0.004,3.44,0.007,6.881,0.011,10.321H-217.035L-217.035,32.432z M-179.777,32.432
	c0.024-2.646,0.05-5.292,0.074-7.938c0.668-0.001,1.337-0.003,2.005-0.003c0.59,0.007,1.058,0.359,1.058,0.959
	c0.003,2.326,0.006,4.653,0.008,6.981c0.898,0,1.797,0,2.694,0c0.021-2.314,0.044-4.629,0.065-6.942
	c0.018-1.834-0.703-3.457-2.877-3.457c-0.411,0-0.821,0-1.232,0c-0.724,0.028-1.194,0.248-1.732,0.769
	c-0.462,0.446-0.449,0.69-0.449-0.02v-0.689l-2.3,0.001c0.004,3.44,0.012,6.898,0.015,10.339
	C-181.557,32.432-180.667,32.432-179.777,32.432L-179.777,32.432z M-189.788,27.957c0.978,0,1.955,0,2.933,0
	c0,0.511,0,1.021,0,1.532c0,0.636-1.852,0.664-3.029,0.637c-0.863-0.02-0.762,0.004-0.8-0.765c-0.014-0.285-0.001-0.57-0.001-0.857
	C-190.686,27.916-190.565,27.957-189.788,27.957L-189.788,27.957z M-197.424,26.105v1.423v1.426c0,0.664-0.543,1.207-1.207,1.207
	c-0.453,0-0.906,0-1.358,0c-0.948,0-0.955,0.013-0.955-1.338v-1.295v-1.764c0-1.351,0.007-1.338,0.955-1.338
	c0.452,0,0.905,0,1.358,0c0.664,0,1.207,0.543,1.207,1.207V26.105z"/>
<g>
	<g>
		<defs>
			<path id="SVGID_3_" d="M403.063-457.847l0.02-0.01C403.073-457.852,403.068-457.852,403.063-457.847 M403.083-457.857
				c0.005,0,0.01,0,0.015,0H403.083z M403.462-457.923h0.076c-0.041,0-0.096,0.02-0.157,0.025
				C403.427-457.903,403.462-457.923,403.462-457.923 M430.878-459.809c-9.673,0.01-18.885,0.551-27.613,1.911l-0.167,0.04
				c0.066-0.015,0.142-0.02,0.217-0.035c-10.406,1.947-12.635,7.761-12.635,7.761c-2.7,5.436,2.457,20.236,12.853,37.756
				c2.816-0.445,20.6-2.837,39.591-2.437c19.002,0.425,30.015,2.781,34.848,5.724c4.814,2.912,3.378,8.571,2.786,10.108
				c3.545-6.28,11.079-21.186,13.349-30.177c2.255-8.99,0.319-12.949-0.091-13.925c-2.073-5.117-6.068-7.438-7.064-7.954
				c-10.33-5.147-26.955-7.145-37.892-7.989c-5.638-0.511-11.473-0.784-17.46-0.784H430.878z"/>
		</defs>
		<clipPath id="SVGID_4_">
			<use xlink:href="#SVGID_3_"  overflow="visible"/>
		</clipPath>
		
			<linearGradient id="SVGID_5_" gradientUnits="userSpaceOnUse" x1="5988.248" y1="7598.5708" x2="5993.3047" y2="7598.5708" gradientTransform="matrix(20.8017 -0.0541 -0.0541 -20.8017 -123764.7422 157957.7813)">
			<stop  offset="0" style="stop-color:#034C2D"/>
			<stop  offset="0.2657" style="stop-color:#286B32"/>
			<stop  offset="0.8557" style="stop-color:#87B73D"/>
			<stop  offset="0.9121" style="stop-color:#90BF3E"/>
			<stop  offset="1" style="stop-color:#90BF3E"/>
		</linearGradient>
		<polygon clip-path="url(#SVGID_4_)" fill="url(#SVGID_5_)" points="387.82,-459.808 496.362,-460.09 496.521,-398.981 
			387.98,-398.698 		"/>
	</g>
	<g>
		<defs>
			<path id="SVGID_6_" d="M403.361-457.898c-0.101,0.02-0.207,0.02-0.298,0.051c-29.256,4.03-42.029,12.98-47.03,17.95
				c0,0-5.901,5.507-5.587,14.219c0.389,11.311,7.261,27.042,10.406,33.367c6.574,13.339,15.811,26.769,18.486,30.384
				c5.077,6.968,13.956,17.813,23.098,26.258c6.988,6.437,16.62,14.623,24.539,18.714c4.46,2.306,9.789,2.397,10.32,2.356
				c1.218-0.025,7.918-0.268,13.966-5.749c7.423-6.71,14.684-19.533,19.74-28.053c7.741-13.076,14.127-28.472,17.278-36.805
				c2.381-6.214,8.96-25.449,10.881-39.48c1.057-7.782-1.133-13.703-1.947-15.513c-1.178-2.68-2.569-4.839-4.197-6.523
				c-0.764-0.794-1.987-1.911-3.231-2.746c-1.431-0.951-2.832-1.567-2.832-1.567c0.996,0.516,4.991,2.837,7.064,7.954
				c0.409,0.976,2.346,4.935,0.091,13.925c-2.265,8.96-9.739,23.795-13.308,30.121c0,0-0.015,0.031-0.041,0.056
				c-0.865,1.552-21.348,37.604-31.167,37.498c-9.81-0.111-31.339-28.841-36.624-36.371c-3.494-4.955-6.659-9.835-9.435-14.532
				c0-0.01-0.015-0.01-0.015-0.01c-10.381-17.5-15.538-32.3-12.838-37.736c0,0,2.24-5.84,12.692-7.767H403.361z M403.498-457.923
				c0,0-0.035,0.015-0.065,0.015c0.046,0,0.086-0.015,0.086-0.015H403.498z"/>
		</defs>
		<clipPath id="SVGID_7_">
			<use xlink:href="#SVGID_6_"  overflow="visible"/>
		</clipPath>
		
			<linearGradient id="SVGID_8_" gradientUnits="userSpaceOnUse" x1="5992.6846" y1="7290.8184" x2="5997.7412" y2="7290.8184" gradientTransform="matrix(22.8009 19.0314 19.0314 -22.8009 -275035.375 51745.5781)">
			<stop  offset="0" style="stop-color:#90BF3E"/>
			<stop  offset="0.0989" style="stop-color:#90BF3E"/>
			<stop  offset="0.4482" style="stop-color:#548E37"/>
			<stop  offset="0.8209" style="stop-color:#1A5F30"/>
			<stop  offset="1" style="stop-color:#034C2D"/>
		</linearGradient>
		<polygon clip-path="url(#SVGID_7_)" fill="url(#SVGID_8_)" points="411.759,-531.756 570.743,-399.055 438.589,-240.726 
			279.605,-373.426 		"/>
	</g>
	<path fill="#91BF3E" d="M190.998-201.48c-0.759,0.122-3.944,0.632-6.559,0.632c-7.048,0-8.504-3.954-8.504-10.006
		c0-5.906,1.218-10.174,8.504-10.174c3.085,0,5.77,0.48,6.559,0.622l-0.198,1.886c-0.96-0.156-3.908-0.652-6.361-0.652
		c-5.106,0-5.759,3.064-5.759,8.318c0,5.279,0.778,8.166,5.759,8.166c2.21,0,5.487-0.531,6.356-0.668L190.998-201.48z"/>
	<path fill="#91BF3E" d="M197.168-214.86c0.849-0.248,2.209-0.591,3.63-0.591c4.88,0,6.063,2.321,6.063,7.013v7.347h-2.721v-7.347
		c0-3.888-0.596-5.365-3.342-5.365c-1.421,0-2.766,0.329-3.63,0.607v12.105h-2.655v-19.695h2.655V-214.86z"/>
	<path fill="#91BF3E" d="M222.449-202.06c-2.241,0.855-4.152,1.274-5.861,1.274c-4.773,0-6.507-2.3-6.507-6.998v-7.352h2.72v7.352
		c0,3.868,0.981,5.365,3.787,5.365c1.042,0,2.356-0.334,3.195-0.607v-12.11h2.665V-202.06z"/>
	<path fill="#91BF3E" d="M226.001-214.137c2.25-0.849,4.111-1.279,6.295-1.279c4.768,0,6.502,2.316,6.502,7.008v7.337h-2.705v-7.337
		c0-3.853-0.981-5.37-3.797-5.37c-1.426,0-2.771,0.349-3.641,0.602v12.105h-2.654V-214.137z"/>
	<path fill="#91BF3E" d="M242.545-198.704c1.825,0.465,3.898,0.87,5.492,0.87c2.695,0,3.413-1.178,3.458-3.979
		c-0.86,0.248-2.24,0.586-3.64,0.586c-4.859,0-6.068-2.331-6.068-6.583c0-5.072,1.492-7.59,7.852-7.59
		c1.492,0,3.11,0.121,4.511,0.217v12.05c0,4.374-0.784,6.912-6.093,6.942c-2.007,0-4.399-0.506-5.977-0.9L242.545-198.704z
		 M251.485-213.681c-0.657-0.04-1.552-0.081-2.109-0.071c-4.287,0.03-4.874,1.82-4.874,5.891c0,3.464,0.607,4.986,3.353,4.986
		c1.415,0,2.76-0.334,3.631-0.602V-213.681z"/>
	<path fill="#91BF3E" d="M268.231-214.137c2.24-0.849,4.1-1.279,6.3-1.279c4.763,0,6.497,2.316,6.497,7.008v7.337h-2.715v-7.337
		c0-3.853-0.971-5.37-3.782-5.37c-1.431,0-2.786,0.349-3.661,0.602v12.105h-2.639V-214.137z"/>
	<path fill="#91BF3E" d="M284.693-220.521h2.675v2.245h-2.675V-220.521z M284.693-215.156h2.675v14.087h-2.675V-215.156z"/>
	<path fill="#91BF3E" d="M302.851-201.671c-1.628,0.364-4.045,0.849-5.926,0.849c-5.254-0.02-6.604-2.867-6.604-7.296
		c0-5.466,2.463-7.302,6.457-7.302c4.293,0,6.548,2.028,6.548,6.796v1.284h-10.274c0.06,3.246,1.021,4.884,3.913,4.884
		c1.507,0,4.303-0.551,5.567-0.839L302.851-201.671z M296.44-221.679h1.325l4.192,4.01h-2.351l-2.483-2.412l-2.508,2.412h-2.336
		L296.44-221.679z M300.591-208.988c-0.051-3.56-1.193-4.773-3.813-4.773c-2.492,0-3.666,1.229-3.726,4.773H300.591z
		 M298.736-224.293l3.595,3.504h-2.336l-3.984-3.504H298.736z"/>
	<path fill="#91BF3E" d="M306.271-214.15c2.356-0.94,4.287-1.289,6.3-1.289c1.8,0,3.13,0.369,4.014,1.082
		c2.24-0.839,3.818-1.082,5.638-1.082c4.864,0,6.062,2.311,6.062,7.013v7.352h-2.73v-7.352c0-3.898-0.597-5.365-3.332-5.365
		c-1.527,0-2.725,0.243-4.348,0.814c0.551,1.117,0.738,2.614,0.738,4.551v7.352h-2.7v-7.352c0-3.898-0.602-5.365-3.342-5.365
		c-1.421,0-2.771,0.334-3.635,0.602v12.115h-2.665V-214.15z"/>
	<path fill="#91BF3E" d="M345.958-218.671v3.535h3.266v1.648h-3.266v7.893c0,2.397,0.202,3.115,1.233,3.155
		c0.076,0.01,0.162,0.01,0.263,0.01c0.369,0,0.956-0.106,1.805-0.369l-0.293,1.699c-1.158,0.233-1.699,0.278-2.179,0.278
		c-2.953,0-3.469-1.36-3.469-4.773v-7.893h-2.948v-1.648h2.948v-3.535H345.958z"/>
	<path fill="#91BF3E" d="M351.837-220.521h2.665v2.245h-2.665V-220.521z M351.837-215.156h2.665v14.087h-2.665V-215.156z"/>
	<path fill="#91BF3E" d="M358.024-214.137c2.25-0.849,4.111-1.279,6.295-1.279c4.788,0,6.517,2.316,6.517,7.008v7.337h-2.72v-7.337
		c0-3.853-0.976-5.37-3.797-5.37c-1.416,0-2.771,0.349-3.626,0.602v12.105h-2.67V-214.137z"/>
	<polygon fill="#91BF3E" points="385.873,-215.157 389.807,-203.704 390.176,-203.704 394.155,-215.157 396.916,-215.157 
		391.698,-201.069 388.27,-201.069 383.127,-215.157 	"/>
	<path fill="#91BF3E" d="M413.909-216.253c0.192,0.652,0.273,1.234,0.273,1.739c0,1.249-0.496,2.073-1.239,2.412
		c-0.283,0.121-0.567,0.182-0.87,0.182c-0.278,0-0.572-0.061-0.86-0.157v10.017c-2.229,0.854-4.151,1.274-5.86,1.274
		c-4.763,0-6.498-2.3-6.498-6.998v-7.352h2.725v7.352c0,3.863,0.966,5.365,3.773,5.365c1.052,0,2.376-0.334,3.216-0.601v-12.115
		h2.69v1.638c0.116,0.02,0.222,0.04,0.328,0.04c0.238,0,0.46-0.051,0.663-0.136c0.465-0.223,0.723-0.814,0.723-1.532
		c0-0.293-0.051-0.597-0.131-0.91L413.909-216.253z M410.536-220.06c-0.971,0.966-1.997,1.75-3.105,1.75
		c-1.967,0-2.594-1.441-3.955-1.441c-0.607,0-1.415,0.642-2.058,1.209l-1.315-0.9c1.107-0.94,2.179-1.638,3.408-1.638
		c1.926,0,2.665,1.406,3.868,1.406c0.551,0,1.355-0.713,1.891-1.178L410.536-220.06z"/>
	<path fill="#91BF3E" d="M415.636-214.137c2.245-0.849,4.105-1.279,6.3-1.279c4.778,0,6.512,2.316,6.512,7.008v7.337h-2.725v-7.337
		c0-3.853-0.971-5.37-3.787-5.37c-1.421,0-2.776,0.349-3.646,0.602v12.105h-2.654V-214.137z"/>
	<path fill="#91BF3E" d="M432.198-198.704c1.815,0.465,3.898,0.87,5.476,0.87c2.705,0,3.413-1.178,3.464-3.979
		c-0.86,0.248-2.24,0.586-3.635,0.586c-4.859,0-6.062-2.331-6.062-6.583c0-5.072,1.481-7.59,7.837-7.59
		c1.507,0,3.125,0.121,4.521,0.217v12.05c0,4.374-0.799,6.912-6.088,6.942c-1.997,0-4.405-0.506-5.967-0.9L432.198-198.704z
		 M441.128-213.681c-0.652-0.04-1.558-0.081-2.089-0.071c-4.288,0.03-4.895,1.82-4.895,5.891c0,3.464,0.612,4.986,3.358,4.986
		c1.416,0,2.755-0.334,3.626-0.602V-213.681z"/>
	<path fill="#91BF3E" d="M461.724-218.671v3.535h3.256v1.648h-3.256v7.893c0,2.397,0.202,3.115,1.233,3.155
		c0.076,0.01,0.157,0.01,0.243,0.01c0.379,0,0.965-0.106,1.805-0.369l-0.283,1.699c-1.152,0.233-1.699,0.278-2.169,0.278
		c-2.958,0-3.479-1.36-3.479-4.773v-7.893h-2.948v-1.648h2.948v-3.535H461.724z"/>
	<path fill="#91BF3E" d="M482.267-216.254c0.197,0.652,0.273,1.234,0.273,1.745c0,1.244-0.501,2.073-1.244,2.407
		c-0.278,0.121-0.572,0.182-0.865,0.182c-0.288,0-0.576-0.061-0.86-0.172v10.032c-2.24,0.855-4.141,1.28-5.86,1.28
		c-4.763,0-6.498-2.306-6.498-6.998v-7.357h2.725v7.357c0,3.858,0.976,5.36,3.773,5.36c1.052,0,2.371-0.334,3.205-0.602v-12.115
		h2.695v1.638c0.116,0.025,0.227,0.04,0.333,0.04c0.238,0,0.465-0.051,0.663-0.137c0.465-0.222,0.718-0.809,0.718-1.527
		c0-0.293-0.051-0.602-0.131-0.915L482.267-216.254z"/>
	<path fill="#91BF3E" d="M498.425-216.227c0.192,0.652,0.278,1.234,0.278,1.734c0,1.254-0.515,2.083-1.259,2.417
		c-0.268,0.106-0.551,0.167-0.835,0.167c-0.096,0-0.177-0.01-0.247-0.02c0.354,0.961,0.551,2.134,0.551,3.58
		c0,5.082-1.355,7.524-6.674,7.524c-5.299,0-6.801-2.114-6.801-7.574c0-5.097,2.154-7.013,6.801-7.013
		c2.22,0,3.944,0.576,5.092,1.876c0.228,0.076,0.465,0.111,0.693,0.111c0.263,0,0.515-0.045,0.743-0.162
		c0.47-0.202,0.713-0.794,0.713-1.507c0-0.293-0.046-0.607-0.127-0.915L498.425-216.227z M494.254-208.35
		c0-4.05-1.522-5.415-4.015-5.415c-3.029,0-4.146,1.067-4.146,5.365c0,4.47,0.688,5.946,4.146,5.946
		C493.672-202.454,494.254-204.188,494.254-208.35"/>
	<path fill="#91BF3E" d="M500.142-214.137c2.24-0.849,4.105-1.279,6.285-1.279c4.784,0,6.512,2.316,6.512,7.008v7.337h-2.71v-7.337
		c0-3.853-0.976-5.37-3.803-5.37c-1.416,0-2.766,0.349-3.64,0.602v12.105h-2.644V-214.137z"/>
	<path fill="#91BF3E" d="M516.691-198.704c1.82,0.465,3.903,0.87,5.487,0.87c2.695,0,3.413-1.178,3.463-3.979
		c-0.865,0.248-2.25,0.586-3.645,0.586c-4.859,0-6.043-2.331-6.043-6.583c0-5.072,1.471-7.59,7.827-7.59
		c1.502,0,3.11,0.121,4.505,0.217v12.05c0,4.374-0.788,6.912-6.077,6.942c-1.997,0-4.399-0.506-5.977-0.9L516.691-198.704z
		 M525.626-213.681c-0.652-0.04-1.558-0.081-2.094-0.071c-4.288,0.03-4.884,1.82-4.884,5.891c0,3.464,0.607,4.986,3.347,4.986
		c1.41,0,2.771-0.334,3.631-0.602V-213.681z"/>
	<rect x="542.467" y="-220.799" fill="#91BF3E" width="2.655" height="19.725"/>
	<path fill="#91BF3E" d="M549.165-215.005c2.052-0.227,3.807-0.41,5.466-0.41c3.626,0,5.309,1.674,5.309,4.556v8.818
		c-1.557,0.496-4.03,1.219-7.14,1.219c-2.878,0-4.713-1.517-4.713-4.283c0-2.387,1.451-3.919,4.98-4.237l4.217-0.374v-1.218
		c0-1.957-0.849-2.786-2.655-2.786c-1.391,0-3.054,0.147-5.158,0.369L549.165-215.005z M557.276-208.053l-3.934,0.329
		c-1.931,0.187-2.543,1.062-2.543,2.619c0,1.558,0.768,2.614,2.083,2.655c1.663,0,3.357-0.374,4.394-0.652V-208.053z"/>
	<path fill="#91BF3E" d="M563.553-220.521h2.65v2.245h-2.65V-220.521z M563.553-215.156h2.65v14.087h-2.65V-215.156z"/>
	<polygon fill="#034C2D" points="4.135,-295.858 -11.449,-295.807 -11.449,-236.395 4.135,-236.395 	"/>
	<path fill="#034C2D" d="M91.418-237.151c-2.352-0.834-4.288-2.316-5.572-4.252c-2.538-3.99-2.751-8.824-2.816-15.154v-25.201
		h-9.607v-14.092h9.607v-14.396h15.559v14.396h14.295v14.092H98.588v26.951c0,1.659,0.076,2.928,0.243,3.636
		c0.152,0.733,0.288,0.875,0.334,0.875c0.045,0.046,0.116,0.162,0.531,0.238c0.47,0.162,1.436,0.253,2.766,0.253
		c0.778,0,2.473-0.182,3.823-0.42c1.35-0.212,2.452-0.43,2.452-0.43l2.857-0.607l1.547,12.833l-2.073,0.743
		c-0.162,0-5.193,1.719-11.185,1.719C96.545-235.967,93.784-236.286,91.418-237.151"/>
	<path fill="#034C2D" d="M145.266-235.579c-4.465,0-8.313-0.384-11.696-1.325c-3.413-0.971-6.33-2.609-8.601-5.127
		c-4.556-5.041-6.037-12.687-6.037-24.038c0-8.54,0.875-14.921,3.175-19.796c2.316-4.839,6.356-7.994,11.463-9.375
		c3.383-1.001,7.231-1.295,11.696-1.295c9.683,0,18.911,2.265,19.032,2.301l2.346,0.546l-1.962,14.011l-2.827-0.632
		c0,0-0.409-0.071-1.122-0.258c-0.764-0.131-1.841-0.288-3.13-0.47c-2.655-0.364-6.159-0.723-9.774-0.723
		c-3.757,0-6.487,0.238-8.277,0.759c-1.79,0.581-2.483,1.173-3.216,2.316c-0.455,0.839-0.859,1.947-1.138,3.6
		c-0.314,2.169-0.465,5.163-0.465,9.016c0,4.268,0.151,7.494,0.632,9.754c0.495,2.291,1.173,3.443,2.068,4.227
		c0.642,0.551,1.492,0.961,2.786,1.309c1.77,0.47,4.298,0.617,7.61,0.617c5.395,0,10.623-0.92,12.843-1.335
		c0.764-0.086,1.152-0.212,1.152-0.212l2.857-0.627l1.962,13.551l-2.139,0.718C164.298-237.995,157.087-235.579,145.266-235.579"/>
	<path fill="#034C2D" d="M317.827-283.873c-0.991-4.505-3.206-8.141-6.882-10.123c-3.631-1.982-8.181-2.538-13.925-2.538
		c-3.498,0-7.159,0.379-7.23,0.379l-0.749,0.056l-7.22,5.623h-0.051c-0.081,0.086-0.146,0.086-0.257,0.197
		c-2.463-2.488-4.799-4.187-7.459-5.142c-2.589-0.94-5.299-1.112-8.601-1.112h-0.364c-3.226,0-7.099,0.379-7.104,0.41l-0.541,0.071
		l-6.199,4.784c-0.258,0.162-0.409,0.293-0.596,0.384c-0.456,0.187-0.622-0.091-0.713-0.314l-0.531-4.657h-0.035h-12.919v59.458
		h15.569v-44.774c2.346-0.43,5.683-0.784,9.076-0.784c2.346,0,4.076,0.056,5.305,0.303c0.884,0.227,1.431,0.481,1.81,0.668
		c0.43,0.42,0.83,0.91,1.199,2.275c0.328,1.37,0.541,3.509,0.541,6.452v35.86h15.559v-39.915c0-1.669-0.136-3.342-0.506-4.991
		c2.533-0.298,5.987-0.597,9.349-0.566c2.286-0.031,4.076,0.111,5.294,0.374c0.9,0.192,1.451,0.425,1.815,0.642
		c0.491,0.414,0.895,0.824,1.249,2.21c0.314,1.314,0.511,3.514,0.501,6.523v35.723h15.559v-36.78
		C318.767-277.36,318.545-280.93,317.827-283.873"/>
	<path fill="#034C2D" d="M58.318-293.681c-4.318-2.174-9.683-2.852-16.63-2.852c-5.719,0-10.669,0.495-14.846,2.2
		c-4.212,1.663-7.569,4.824-9.46,9.46c-1.841,4.778-2.741,11.66-2.761,18.81c0.02,6.113,0.591,11.048,1.85,15.139
		c1.77,6.133,5.294,10.33,10.002,12.55c4.682,2.23,10.168,2.75,16.459,2.796c11.564-0.046,20.15-3.09,20.357-3.196l2.078-0.738
		l-2.144-13.333l-2.741,0.521c-5.809,1.198-10.522,2.164-16.514,2.164c-2.093,0-4.5-0.02-6.558-0.369
		c-2.113-0.46-3.772-1.193-4.803-2.493c-1.451-1.82-2.194-5.375-2.189-8.656v-1.289c0.06-0.147,0.127-0.283,0.263-0.303l0.045-0.081
		l0.02,0.045c0.122,0,0.207,0,0.349,0.035c0.218,0.091,0.405,0.212,0.632,0.349l2.842,2.791l0.496,0.405l0.597,0.116
		c0.212,0.045,3.924,0.753,11.407,0.753c7.903-0.076,14.724-0.819,17.884-0.935l2.442-0.076l0.121-2.407
		c0.212-3.893,0.329-5.8,0.329-7.878c0-4.798-0.329-8.894-1.229-12.287C65.367-287.568,62.606-291.552,58.318-293.681
		 M45.212-272.915c-2.104,0-3.524-0.015-3.524-0.015h-0.147H41.47c0,0-1.133,0.015-2.912,0.015c-2.058,0-5.011-0.071-7.878-0.354
		c0.106-1.79,0.227-3.196,0.414-4.339c0.218-1.209,0.501-2.002,0.835-2.508c0.45-0.723,0.844-1.097,2.452-1.558
		c1.563-0.506,4.141-0.693,7.833-0.693c2.376,0,4.247,0.101,5.537,0.399c0.951,0.207,1.583,0.47,2.023,0.764
		c0.586,0.46,1.072,1.107,1.527,2.821c0.314,1.229,0.541,2.968,0.607,5.259C49.596-272.93,47.164-272.915,45.212-272.915"/>
	<path fill="#034C2D" d="M223.474-288.202c-1.856-3.357-4.859-5.613-8.702-6.761c-3.777-1.183-8.363-1.572-14.137-1.572
		c-5.148,0-9.324,0.293-12.834,1.168c-2.665,0.723-4.96,1.734-6.851,3.327c-2.872,2.377-4.561,5.805-5.471,10.077
		c-0.925,4.212-1.198,9.39-1.198,15.892c0,5.79,0.202,10.522,0.92,14.487c0.506,2.973,1.33,5.491,2.599,7.615
		c1.886,3.378,4.919,5.638,8.717,6.781c3.782,1.213,8.333,1.567,14.117,1.608c5.122-0.04,9.339-0.318,12.873-1.198
		c2.629-0.698,4.95-1.765,6.821-3.418c2.862-2.326,4.551-5.754,5.466-9.961c0.895-4.237,1.143-9.405,1.143-15.913
		c0-5.84-0.192-10.537-0.864-14.502C225.557-283.53,224.758-286.053,223.474-288.202 M210.823-256.245
		c-0.228,1.79-0.531,2.999-0.89,3.792c-0.597,1.224-0.961,1.527-2.295,2.012c-1.346,0.455-3.737,0.632-7.003,0.632
		c-2.968,0-5.102-0.121-6.483-0.49c-1.057-0.238-1.613-0.556-2.042-0.966c-0.586-0.572-1.204-1.724-1.578-4.161
		c-0.344-2.412-0.48-5.931-0.48-10.644c0-4.207,0.091-7.473,0.369-9.814c0.243-1.77,0.551-3.044,0.895-3.792
		c0.622-1.209,0.986-1.527,2.336-2.007c1.376-0.47,3.646-0.678,6.983-0.678c2.917,0,5.107,0.121,6.497,0.485
		c1.072,0.293,1.623,0.577,2.033,0.991c0.581,0.581,1.173,1.699,1.527,4.146c0.374,2.407,0.49,5.931,0.48,10.669
		C211.182-261.843,211.066-258.597,210.823-256.245"/>
	<path fill="#034C2D" d="M498.1-283.873c-1.002-4.505-3.292-8.141-6.948-10.123c-3.621-1.982-8.136-2.538-13.946-2.538
		c-2.159,0-6.31,0.48-6.356,0.48l-0.733,0.076h-0.046l-6.189,4.778c-0.252,0.152-0.415,0.288-0.581,0.399
		c-0.445,0.157-0.662-0.111-0.728-0.268l-0.521-4.788h-13.132v59.458h15.573v-44.638c2.675-0.46,6.462-0.92,10.068-0.92
		c2.275,0,4.09,0.056,5.304,0.303c0.91,0.227,1.487,0.481,1.805,0.668c0.526,0.42,0.859,0.91,1.234,2.275
		c0.354,1.37,0.51,3.509,0.51,6.452v35.86h15.609v-36.78C499.026-277.36,498.752-280.93,498.1-283.873"/>
	<path fill="#034C2D" d="M562.135-239.604L562.135-239.604c-0.066-0.091-0.188-0.172-0.299-0.283
		c-0.071-0.071-0.127-0.152-0.212-0.172c-17.581-15.528-22.299-28.508-22.299-28.508l10.35-11.721l9.971-11.423l5.092-5.708
		l-3.782,0.086h-14.557l-19.922,22.056c-0.369,0.44-0.825,0.87-1.158,1.138c-0.647,0.399-1.381,0.263-1.381,0.263v-45.351h-15.614
		v82.828h15.614v-26.303c0,0,1.168-0.116,1.578,0.47c0,0,8.409,16.63,20.241,25.727h14.208v0.106h5.926
		C564.567-237.475,563.277-238.612,562.135-239.604"/>
	<path fill="#034C2D" d="M437.747-286.787c-1.168-2.715-3.054-4.879-5.521-6.341c-4.41-2.68-10.295-3.413-17.829-3.413
		c-13.329,0-22.865,2.968-23.027,3.034l-2.21,0.662l2.281,13.91l2.912-0.718c0,0,0.536-0.127,1.507-0.374
		c3.039-0.693,10.047-2.078,17.015-2.078c4.141-0.051,6.948,0.298,8.312,1.006c1.083,0.505,1.558,1.026,1.978,1.77
		c0.369,0.779,0.581,1.967,0.632,3.631l-17.46,0.172c-3.408,0.046-6.387,0.344-8.915,1.067c-3.777,1.001-6.872,3.211-8.54,6.452
		c-1.704,3.282-2.235,7.2-2.276,12.237c0,3.64,0.278,6.624,1.057,9.319c1.057,3.979,3.59,7.069,7.286,8.717
		c3.666,1.633,8.202,2.124,14.103,2.154c3.625,0,8.08-0.506,8.08-0.506l0.865-0.106l6.219-4.748c0.253-0.212,0.44-0.334,0.607-0.45
		c0.425-0.122,0.638,0.116,0.703,0.283l0.491,4.708h13.394v-40.461C439.41-280.749,438.935-284,437.747-286.787 M423.797-251.584
		c-2.984,0.572-8.834,1.598-13.738,1.598c-1.79,0-3.277-0.071-4.353-0.243c-0.855-0.066-1.431-0.263-1.796-0.384
		c-0.51-0.314-0.637-0.47-0.96-1.057c-0.298-0.677-0.561-2.002-0.561-4.101c0-2.21,0.263-3.681,0.561-4.47
		c0.248-0.602,0.389-0.774,0.546-0.92c0.303-0.182,0.849-0.399,2.144-0.581c1.239-0.045,2.973,0,5.137-0.02l13.021-0.314V-251.584z"
		/>
	<path fill="#034C2D" d="M367.538-294.843c-3.089-1.148-6.649-1.689-10.952-1.689c-1.633,0-3.216,0.232-4.393,0.41
		c-0.456,0.131-0.87,0.182-1.178,0.268l-6.048,4.809c-0.258,0.157-0.46,0.283-0.632,0.349c-0.404,0.223-0.627-0.025-0.652-0.227
		v-28.296h-15.523l0.02,79.628l1.81,0.597c7.625,2.589,15.938,3.373,22.03,3.418c5.299,0,9.622-0.511,13.293-1.608
		c5.527-1.583,9.455-5.142,11.478-10.077c2.104-4.89,2.599-11.094,2.599-19.078c0-10.042-0.875-17.374-4.409-22.749
		C373.191-291.713,370.642-293.665,367.538-294.843 M363.144-257.113c-0.263,1.699-0.597,2.968-1.017,3.818
		c-0.647,1.355-1.234,1.846-2.447,2.372c-1.213,0.48-3.236,0.768-6.002,0.768c-3.307,0-6.29-0.324-8.454-0.617
		c-0.516-0.096-0.976-0.182-1.355-0.314v-29.666c2.336-0.551,6.437-1.355,10.163-1.355c2.341,0,4.136,0.238,5.329,0.698
		c0.844,0.273,1.461,0.657,1.926,1.168c0.703,0.764,1.335,2.154,1.79,4.409c0.374,2.28,0.572,5.486,0.572,9.491
		C363.65-262.462,363.503-259.403,363.144-257.113"/>
	<path fill="#034C2D" d="M-68.994-237.686l0.147,0.213l0.243,0.101c0.071,0,5.178,1.259,12.166,1.259
		c3.499,0,7.519-0.298,11.604-1.259l0.273-0.051l0.131-0.263c17.667-27.011,23.866-52.788,26.05-67.71
		c1.052-6.058,1.34-13.035,1.34-13.126l-18.491,2.705c-1.365,10.012-6.305,38.797-20.134,62.315l-0.576,0.986l-0.561-0.986
		c-9.384-16.12-14.613-32.396-17.5-44.617c-1.39-5.896-2.599-13.961-3.125-17.783l-18.774-2.528
		C-96.152-315.114-94.842-277.318-68.994-237.686"/>
</g>
<g>
	<linearGradient id="SVGID_9_" gradientUnits="userSpaceOnUse" x1="-36.8733" y1="6.0429" x2="-57.7955" y2="-8.607">
		<stop  offset="0" style="stop-color:#006840"/>
		<stop  offset="0.4" style="stop-color:#007A48"/>
		<stop  offset="1" style="stop-color:#86C440"/>
	</linearGradient>
	<path fill-rule="evenodd" clip-rule="evenodd" fill="url(#SVGID_9_)" d="M-50.466-10.007c-1.843,0.374-2.518,1.209-2.452,2.411
		c0.092,1.688,1.95,4.909,2.838,6.345c1.551,2.51,3.386,4.773,5.427,6.857c1.654,1.634,2.688,1.987,4.455-0.425
		c1.507-1.986,2.9-3.964,4.095-6.427c0.524-1.083,1.008-2.264,1.441-3.589c0.465-1.547,0.296-2.916-1.216-3.924
		c1.465,0.71,2.096,2.023,2.189,3.468c0.09,1.397-0.329,2.919-0.648,4.039c-0.795,2.79-1.812,5.603-3.1,8.132
		c-0.973,1.909-2.213,4.208-3.449,5.908c-2.736,3.766-5.364,2.549-8.442,0.001c-1.951-1.615-3.828-3.662-5.438-5.896
		c-1.626-2.255-3.423-5.592-4.482-8.156c-1.452-3.513-0.323-5.312,1.471-6.452C-55.807-8.967-52.855-9.677-50.466-10.007z"/>
	<linearGradient id="SVGID_10_" gradientUnits="userSpaceOnUse" x1="-49.9962" y1="-10.1335" x2="-37.6153" y2="-1.4644">
		<stop  offset="0" style="stop-color:#006840"/>
		<stop  offset="0.3" style="stop-color:#007A48"/>
		<stop  offset="1" style="stop-color:#86C440"/>
	</linearGradient>
	<path fill-rule="evenodd" clip-rule="evenodd" fill="url(#SVGID_10_)" d="M-50.529-1.995c2.851-0.426,10.259-0.887,12.857,0.46
		c0.869,0.45,0.894,1.06,0.808,1.751c0.261-0.469,0.515-0.955,0.761-1.461c0.524-1.083,1.008-2.264,1.441-3.589
		c0.465-1.547,0.296-2.916-1.216-3.924l-0.007-0.004c-0.563-0.295-1.212-0.509-1.793-0.678c-1.715-0.496-3.614-0.699-5.523-0.837
		c-0.789-0.058-1.614-0.052-2.45-0.049c-1.509,0.005-3.166,0.097-4.815,0.318c-1.842,0.374-2.517,1.209-2.451,2.411
		C-52.84-6.157-51.479-3.607-50.529-1.995z"/>
</g>
<g>
	<linearGradient id="SVGID_11_" gradientUnits="userSpaceOnUse" x1="23.4209" y1="16.6172" x2="2.4987" y2="1.9673">
		<stop  offset="0" style="stop-color:#006840"/>
		<stop  offset="0.4" style="stop-color:#007A48"/>
		<stop  offset="1" style="stop-color:#86C440"/>
	</linearGradient>
	<path fill-rule="evenodd" clip-rule="evenodd" fill="url(#SVGID_11_)" d="M9.828,0.567C7.985,0.941,7.311,1.776,7.376,2.978
		c0.092,1.689,1.95,4.909,2.838,6.345c1.551,2.51,3.386,4.773,5.427,6.857c1.654,1.634,2.688,1.987,4.455-0.425
		c1.507-1.986,2.9-3.964,4.095-6.427c0.524-1.083,1.008-2.264,1.441-3.589c0.465-1.547,0.296-2.916-1.216-3.924
		c1.465,0.71,2.096,2.023,2.189,3.468c0.09,1.397-0.329,2.919-0.648,4.039c-0.795,2.79-1.811,5.604-3.1,8.132
		c-0.973,1.909-2.213,4.208-3.449,5.908c-2.736,3.766-5.364,2.549-8.442,0.001c-1.951-1.615-3.828-3.662-5.438-5.895
		c-1.626-2.255-3.423-5.592-4.482-8.156C-0.406,5.8,0.723,4.001,2.517,2.86C4.487,1.607,7.44,0.897,9.828,0.567z"/>
	<linearGradient id="SVGID_12_" gradientUnits="userSpaceOnUse" x1="10.298" y1="0.4408" x2="22.6788" y2="9.1099">
		<stop  offset="0" style="stop-color:#006840"/>
		<stop  offset="0.3" style="stop-color:#007A48"/>
		<stop  offset="1" style="stop-color:#86C440"/>
	</linearGradient>
	<path fill-rule="evenodd" clip-rule="evenodd" fill="url(#SVGID_12_)" d="M9.765,8.579c2.851-0.426,10.259-0.887,12.857,0.46
		c0.869,0.45,0.894,1.06,0.808,1.751c0.261-0.469,0.515-0.955,0.761-1.461c0.524-1.083,1.008-2.264,1.441-3.589
		c0.465-1.547,0.296-2.916-1.216-3.924l-0.007-0.004c-0.563-0.295-1.212-0.509-1.793-0.678c-1.715-0.496-3.614-0.699-5.524-0.837
		c-0.789-0.058-1.614-0.052-2.45-0.049c-1.509,0.005-3.166,0.097-4.815,0.318C7.985,0.941,7.311,1.776,7.376,2.978
		C7.454,4.417,8.816,6.968,9.765,8.579z"/>
</g>
<path fill-rule="evenodd" clip-rule="evenodd" fill="#005030" d="M-57.977,28.908c1.487-0.18,2.748-0.938,3.173-3.188
	c0.271-1.438,0.233-3.757-0.17-5.113c-0.187-0.63-0.469-1.162-0.885-1.51c-0.699-0.583-1.473-0.687-2.153-0.713
	c-1.151-0.044-1.771,0.156-2.603,0.826c-0.162,0.13-0.303,0.188-0.303-0.04l-0.026-4.801l-2.659,0.044l0.012,13.763
	C-62.452,28.943-59.317,29.069-57.977,28.908L-57.977,28.908z M-129.302,28.646c0.559,0,0.449,0.05,0.79-0.417
	c2.313-3.171,4.5-9.932,4.47-13.704c-1.075-0.046-2.163,0.131-3.254,0.393c-1.045,6.186-1.961,7.82-3.631,10.977l0,0l0,0
	c-1.67-3.156-2.586-4.79-3.631-10.977c-1.09-0.262-2.179-0.438-3.253-0.393c-0.03,3.773,2.157,10.533,4.469,13.704
	c0.34,0.467,0.23,0.417,0.79,0.417H-129.302L-129.302,28.646z M-52.856,18.893l0.259,2.415c1.053-0.101,1.914-0.378,3.017-0.457
	c1.663-0.06,2.725-0.1,2.672,1.105c-1.243-0.005-2.495,0-3.787,0.011c-1.567,0.014-2.87,0.759-2.697,3.944
	c0.208,3.825,4.75,3.545,6.823,2.011v0.858h2.411c-0.063-3.905,0.22-8.008-0.484-9.116C-45.987,17.547-50.39,18.324-52.856,18.893
	L-52.856,18.893z M-109.648,28.322c-0.089-0.788-0.179-1.576-0.268-2.364c-1.09,0.204-2.96,0.479-4.061,0.441
	c-1.27-0.041-1.743-0.651-1.737-2.462c0.403,0.456,0.968,0.78,1.68,0.787c1.658,0.018,3.208,0.046,4.842-0.015
	c0.073-3.015,0.333-5.643-2.677-6.286c-1.224-0.261-2.846-0.256-4.007,0.089c-1.274,0.378-1.9,0.983-2.266,2.247
	c-0.683,2.364-0.491,5.867,1.029,7.219C-115.367,29.529-111.848,28.976-109.648,28.322L-109.648,28.322z M-114.495,20.761h1.33
	c0.664,0,1.207,0.543,1.207,1.207v0.535h-3.744v-0.535C-115.702,21.304-115.159,20.761-114.495,20.761L-114.495,20.761z
	 M-29.457,28.76l0.083-4.427c0.005-0.271,0.246,0.093,0.312,0.201c0.877,1.471,1.688,2.578,2.989,3.885
	c0.367,0.367,0.442,0.341,1.095,0.341h2.79c-2.036-1.685-3.168-3.028-4.254-5.071c-0.218-0.471-0.207-0.417,0.104-0.857
	c0.404-0.466,0.913-1.095,1.475-1.735l2.377-2.798c0.012-0.021,0.023-0.044,0.033-0.064h-2.527c-0.464,0-0.447-0.071-0.774,0.281
	c-0.962,1.039-2.065,2.255-2.955,3.236c-0.111,0.122-0.24,0.21-0.352,0.291c-0.366,0.263-0.3,0.193-0.302-0.184l-0.023-7.52
	l-2.692,0.02l-0.034,14.402H-29.457L-29.457,28.76z M-91.951,28.414l-0.237-2.348c-1.214,0.101-2.496,0.435-3.79,0.29
	c-1.29-0.145-1.449-0.827-1.461-1.876c-0.007-0.635-0.026-1.35,0.011-1.976c0.05-0.858,0.303-1.413,1.451-1.542
	c1.294-0.144,2.576,0.19,3.79,0.29l0.237-2.348c-4.629-1.094-7.516-0.548-8.162,3.041c-0.135,0.75-0.074,3.224,0.11,3.928
	C-99.183,29.012-96.356,29.455-91.951,28.414L-91.951,28.414z M-106.48,18.384c-0.564,0-1.128,0-1.693,0
	c-0.005,0.829-0.01,1.659-0.014,2.487c0.583,0.004,1.123,0.008,1.707,0.012c0.003,0.841-0.002,1.733-0.005,2.578
	c-0.003,0.89-0.01,1.723-0.005,2.446c0.006,1.054,0.207,1.957,0.804,2.434c0.25,0.199,0.61,0.304,1.053,0.354
	c1.045,0.119,2.36,0.062,3.255-0.229c-0.029-0.712-0.058-1.424-0.086-2.136c-1.041,0.104-2.316,0.327-2.314-0.205
	c0.001-1.815,0.002-3.421,0.003-5.235c0.833-0.004,1.625-0.007,2.459-0.011c-0.002-0.826-0.004-1.653-0.005-2.48
	c-0.817-0.004-1.635-0.008-2.452-0.012c-0.001-0.824-0.002-1.648-0.003-2.473c-0.903,0.001-1.805,0.003-2.707,0.004
	C-106.482,16.739-106.481,17.561-106.48,18.384L-106.48,18.384z M-123.007,28.759l2.631,0.051l0.096-10.386l-2.738,0.014
	L-123.007,28.759L-123.007,28.759z M-87.144,18.244h2.361c1.844,0,3.353,1.509,3.353,3.354v3.966c0,1.845-1.508,3.353-3.353,3.353
	h-2.361c-1.844,0-3.352-1.509-3.352-3.353v-3.966C-90.496,19.753-88.988,18.244-87.144,18.244L-87.144,18.244z M-86.628,20.761
	c-0.664,0-1.207,0.543-1.207,1.207v3.226c0,0.663,0.543,1.206,1.207,1.206h1.33c0.664,0,1.207-0.543,1.207-1.206v-3.226
	c0-0.664-0.543-1.207-1.207-1.207H-86.628L-86.628,20.761z M-77.035,28.759c0.024-2.646,0.049-5.292,0.073-7.938
	c0.659-0.001,1.318-0.003,1.978-0.003c0.524,0.006,1.042,0.34,1.042,0.903v0.365l0.007,6.672h2.656l0.074-7.946
	c0.723-0.001,1.445-0.001,2.168-0.002c0.638-0.002,1.056,0.358,1.057,0.972l0.01,6.976h2.632l0.09-7.504
	c0.019-1.596-0.86-2.914-2.666-2.897c-0.574,0.006-1.148,0.011-1.722,0.017c-0.865,0.008-1.325,0.165-1.858,0.719
	c-0.399,0.414-0.204,0.418-0.568,0.03c-0.534-0.57-1.175-0.764-1.987-0.764c-0.404,0-0.81,0-1.214,0
	c-0.737,0.029-1.208,0.263-1.762,0.822c-0.44,0.445-0.388,0.593-0.388-0.105c0-0.216,0-0.433,0-0.649c-0.001,0-0.001,0-0.001,0l0,0
	c-0.747,0.003-1.516,0.007-2.263,0.011c0.004,3.44,0.007,6.881,0.011,10.321H-77.035L-77.035,28.759z M-39.776,28.759
	c0.024-2.646,0.05-5.292,0.074-7.938c0.668-0.001,1.337-0.003,2.005-0.003c0.59,0.007,1.058,0.359,1.058,0.959
	c0.003,2.326,0.006,4.653,0.008,6.981c0.898,0,1.797,0,2.694,0c0.022-2.314,0.044-4.629,0.065-6.942
	c0.018-1.834-0.703-3.457-2.877-3.457c-0.411,0-0.821,0-1.232,0c-0.724,0.028-1.194,0.248-1.732,0.769
	c-0.462,0.446-0.449,0.69-0.449-0.019v-0.69l-2.3,0.001c0.004,3.44,0.012,6.898,0.015,10.339
	C-41.557,28.759-40.667,28.759-39.776,28.759L-39.776,28.759z M-49.788,24.284c0.978,0,1.955,0,2.933,0c0,0.511,0,1.021,0,1.532
	c0,0.636-1.852,0.664-3.029,0.637c-0.863-0.02-0.762,0.004-0.8-0.765c-0.014-0.285-0.001-0.57-0.001-0.857
	C-50.686,24.243-50.565,24.284-49.788,24.284L-49.788,24.284z M-57.424,22.433v1.423v1.426c0,0.664-0.543,1.207-1.207,1.207
	c-0.453,0-0.906,0-1.358,0c-0.948,0-0.955,0.013-0.955-1.338v-1.295v-1.764c0-1.351,0.007-1.338,0.955-1.338
	c0.452,0,0.905,0,1.358,0c0.664,0,1.207,0.543,1.207,1.207V22.433z"/>
<g>
	<path fill="#91BF3E" d="M-88.104,35.388c-0.135,0.022-0.7,0.112-1.165,0.112c-1.252,0-1.51-0.702-1.51-1.777
		c0-1.049,0.216-1.806,1.51-1.806c0.548,0,1.025,0.085,1.165,0.11l-0.035,0.335c-0.171-0.028-0.694-0.116-1.13-0.116
		c-0.907,0-1.023,0.544-1.023,1.477c0,0.937,0.138,1.45,1.023,1.45c0.392,0,0.974-0.094,1.129-0.119L-88.104,35.388z"/>
	<path fill="#91BF3E" d="M-87.008,33.012c0.151-0.044,0.392-0.105,0.645-0.105c0.866,0,1.077,0.412,1.077,1.245v1.305h-0.483v-1.305
		c0-0.69-0.106-0.953-0.593-0.953c-0.252,0-0.491,0.058-0.645,0.108v2.149h-0.471V31.96h0.471V33.012z"/>
	<path fill="#91BF3E" d="M-82.519,35.285c-0.398,0.152-0.737,0.226-1.041,0.226c-0.848,0-1.155-0.408-1.155-1.243v-1.305h0.483
		v1.305c0,0.687,0.174,0.953,0.673,0.953c0.185,0,0.418-0.059,0.567-0.108v-2.15h0.473V35.285z"/>
	<path fill="#91BF3E" d="M-81.889,33.14c0.399-0.151,0.73-0.227,1.118-0.227c0.847,0,1.155,0.411,1.155,1.244v1.303h-0.48v-1.303
		c0-0.684-0.174-0.954-0.674-0.954c-0.253,0-0.492,0.062-0.647,0.107v2.149h-0.471V33.14z"/>
	<path fill="#91BF3E" d="M-78.951,35.881c0.324,0.083,0.692,0.154,0.975,0.154c0.479,0,0.606-0.209,0.614-0.707
		c-0.153,0.044-0.398,0.104-0.646,0.104c-0.863,0-1.077-0.414-1.077-1.169c0-0.901,0.265-1.348,1.394-1.348
		c0.265,0,0.552,0.022,0.801,0.039v2.14c0,0.777-0.139,1.227-1.082,1.233c-0.356,0-0.781-0.09-1.061-0.16L-78.951,35.881z
		 M-77.364,33.221c-0.117-0.007-0.276-0.014-0.374-0.013c-0.761,0.005-0.865,0.323-0.865,1.046c0,0.615,0.108,0.885,0.595,0.885
		c0.251,0,0.49-0.059,0.645-0.107V33.221z"/>
	<path fill="#91BF3E" d="M-74.39,33.14c0.398-0.151,0.728-0.227,1.119-0.227c0.846,0,1.154,0.411,1.154,1.244v1.303H-72.6v-1.303
		c0-0.684-0.172-0.954-0.672-0.954c-0.254,0-0.495,0.062-0.65,0.107v2.149h-0.469V33.14z"/>
	<path fill="#91BF3E" d="M-71.467,32.007h0.475v0.399h-0.475V32.007z M-71.467,32.96h0.475v2.501h-0.475V32.96z"/>
	<path fill="#91BF3E" d="M-68.243,35.354c-0.289,0.065-0.718,0.151-1.052,0.151c-0.933-0.004-1.173-0.509-1.173-1.296
		c0-0.971,0.437-1.296,1.147-1.296c0.762,0,1.163,0.36,1.163,1.207v0.228h-1.824c0.011,0.576,0.181,0.867,0.695,0.867
		c0.268,0,0.764-0.098,0.989-0.149L-68.243,35.354z M-69.381,31.801h0.235l0.744,0.712h-0.417l-0.441-0.428l-0.445,0.428h-0.415
		L-69.381,31.801z M-68.644,34.055c-0.009-0.632-0.212-0.848-0.677-0.848c-0.443,0-0.651,0.218-0.662,0.848H-68.644z
		 M-68.974,31.337l0.638,0.622h-0.415l-0.707-0.622H-68.974z"/>
	<path fill="#91BF3E" d="M-67.636,33.138c0.418-0.167,0.761-0.229,1.119-0.229c0.32,0,0.556,0.066,0.713,0.192
		c0.398-0.149,0.678-0.192,1.001-0.192c0.864,0,1.076,0.41,1.076,1.245v1.305h-0.485v-1.305c0-0.692-0.106-0.953-0.592-0.953
		c-0.271,0-0.484,0.043-0.772,0.145c0.098,0.198,0.131,0.464,0.131,0.808v1.305h-0.479v-1.305c0-0.692-0.107-0.953-0.593-0.953
		c-0.252,0-0.492,0.059-0.646,0.107v2.151h-0.473V33.138z"/>
	<path fill="#91BF3E" d="M-60.589,32.335v0.628h0.58v0.293h-0.58v1.402c0,0.426,0.036,0.553,0.219,0.56
		c0.013,0.002,0.029,0.002,0.047,0.002c0.066,0,0.17-0.019,0.321-0.066l-0.052,0.302c-0.206,0.041-0.302,0.049-0.387,0.049
		c-0.524,0-0.616-0.242-0.616-0.848v-1.402h-0.523v-0.293h0.523v-0.628H-60.589z"/>
	<path fill="#91BF3E" d="M-59.545,32.007h0.473v0.399h-0.473V32.007z M-59.545,32.96h0.473v2.501h-0.473V32.96z"/>
	<path fill="#91BF3E" d="M-58.446,33.14c0.399-0.151,0.73-0.227,1.118-0.227c0.85,0,1.157,0.411,1.157,1.244v1.303h-0.483v-1.303
		c0-0.684-0.173-0.954-0.674-0.954c-0.251,0-0.492,0.062-0.644,0.107v2.149h-0.474V33.14z"/>
	<polygon fill="#91BF3E" points="-53.501,32.959 -52.803,34.993 -52.737,34.993 -52.031,32.959 -51.541,32.959 -52.467,35.461 
		-53.076,35.461 -53.989,32.959 	"/>
	<path fill="#91BF3E" d="M-48.523,32.765c0.034,0.116,0.048,0.219,0.048,0.309c0,0.222-0.088,0.368-0.22,0.428
		c-0.05,0.022-0.101,0.032-0.154,0.032c-0.049,0-0.101-0.011-0.153-0.028v1.779c-0.396,0.152-0.737,0.226-1.041,0.226
		c-0.846,0-1.154-0.408-1.154-1.243v-1.305h0.484v1.305c0,0.686,0.172,0.953,0.67,0.953c0.187,0,0.422-0.059,0.571-0.107v-2.151
		h0.478v0.291c0.021,0.004,0.039,0.007,0.058,0.007c0.042,0,0.082-0.009,0.118-0.024c0.083-0.04,0.128-0.145,0.128-0.272
		c0-0.052-0.009-0.106-0.023-0.162L-48.523,32.765z M-49.122,32.089c-0.172,0.172-0.355,0.311-0.551,0.311
		c-0.349,0-0.461-0.256-0.702-0.256c-0.108,0-0.251,0.114-0.365,0.215l-0.233-0.16c0.197-0.167,0.387-0.291,0.605-0.291
		c0.342,0,0.473,0.25,0.687,0.25c0.098,0,0.241-0.127,0.336-0.209L-49.122,32.089z"/>
	<path fill="#91BF3E" d="M-48.217,33.14c0.399-0.151,0.729-0.227,1.119-0.227c0.848,0,1.156,0.411,1.156,1.244v1.303h-0.484v-1.303
		c0-0.684-0.172-0.954-0.672-0.954c-0.252,0-0.493,0.062-0.647,0.107v2.149h-0.471V33.14z"/>
	<path fill="#91BF3E" d="M-45.276,35.881c0.322,0.083,0.692,0.154,0.972,0.154c0.48,0,0.606-0.209,0.615-0.707
		c-0.153,0.044-0.398,0.104-0.646,0.104c-0.863,0-1.076-0.414-1.076-1.169c0-0.901,0.263-1.348,1.392-1.348
		c0.268,0,0.555,0.022,0.803,0.039v2.14c0,0.777-0.142,1.227-1.081,1.233c-0.355,0-0.782-0.09-1.059-0.16L-45.276,35.881z
		 M-43.69,33.221c-0.116-0.007-0.277-0.014-0.371-0.013c-0.761,0.005-0.869,0.323-0.869,1.046c0,0.615,0.109,0.885,0.596,0.885
		c0.251,0,0.489-0.059,0.644-0.107V33.221z"/>
	<path fill="#91BF3E" d="M-40.033,32.335v0.628h0.578v0.293h-0.578v1.402c0,0.426,0.036,0.553,0.219,0.56
		c0.013,0.002,0.028,0.002,0.043,0.002c0.067,0,0.171-0.019,0.32-0.066l-0.05,0.302c-0.205,0.041-0.302,0.049-0.385,0.049
		c-0.525,0-0.618-0.242-0.618-0.848v-1.402h-0.523v-0.293h0.523v-0.628H-40.033z"/>
	<path fill="#91BF3E" d="M-36.385,32.765c0.035,0.116,0.048,0.219,0.048,0.31c0,0.221-0.089,0.368-0.221,0.427
		c-0.049,0.022-0.101,0.032-0.154,0.032c-0.051,0-0.102-0.011-0.153-0.031v1.781c-0.398,0.152-0.735,0.227-1.041,0.227
		c-0.846,0-1.154-0.409-1.154-1.243v-1.306h0.484v1.306c0,0.685,0.173,0.952,0.67,0.952c0.187,0,0.421-0.059,0.569-0.107v-2.151
		h0.479v0.291c0.021,0.004,0.04,0.007,0.059,0.007c0.042,0,0.083-0.009,0.118-0.024c0.083-0.039,0.127-0.144,0.127-0.271
		c0-0.052-0.009-0.107-0.023-0.163L-36.385,32.765z"/>
	<path fill="#91BF3E" d="M-33.516,32.769c0.034,0.116,0.049,0.219,0.049,0.308c0,0.223-0.092,0.37-0.223,0.429
		c-0.048,0.019-0.098,0.03-0.148,0.03c-0.017,0-0.031-0.002-0.044-0.004c0.063,0.171,0.098,0.379,0.098,0.636
		c0,0.902-0.241,1.336-1.185,1.336c-0.941,0-1.208-0.375-1.208-1.345c0-0.905,0.382-1.245,1.208-1.245
		c0.394,0,0.7,0.102,0.904,0.333c0.04,0.013,0.083,0.02,0.123,0.02c0.047,0,0.092-0.008,0.132-0.029
		c0.084-0.036,0.127-0.141,0.127-0.268c0-0.052-0.008-0.108-0.022-0.162L-33.516,32.769z M-34.257,34.168
		c0-0.719-0.27-0.962-0.713-0.962c-0.538,0-0.736,0.189-0.736,0.953c0,0.794,0.122,1.056,0.736,1.056
		C-34.36,35.215-34.257,34.907-34.257,34.168"/>
	<path fill="#91BF3E" d="M-33.211,33.14c0.398-0.151,0.729-0.227,1.116-0.227c0.849,0,1.156,0.411,1.156,1.244v1.303h-0.481v-1.303
		c0-0.684-0.173-0.954-0.675-0.954c-0.251,0-0.491,0.062-0.646,0.107v2.149h-0.47V33.14z"/>
	<path fill="#91BF3E" d="M-30.273,35.881c0.323,0.083,0.693,0.154,0.974,0.154c0.479,0,0.606-0.209,0.615-0.707
		c-0.154,0.044-0.399,0.104-0.647,0.104c-0.863,0-1.073-0.414-1.073-1.169c0-0.901,0.261-1.348,1.39-1.348
		c0.267,0,0.552,0.022,0.8,0.039v2.14c0,0.777-0.14,1.227-1.079,1.233c-0.355,0-0.781-0.09-1.061-0.16L-30.273,35.881z
		 M-28.686,33.221c-0.116-0.007-0.277-0.014-0.372-0.013c-0.761,0.005-0.867,0.323-0.867,1.046c0,0.615,0.108,0.885,0.594,0.885
		c0.25,0,0.492-0.059,0.645-0.107V33.221z"/>
	<rect x="-25.696" y="31.958" fill="#91BF3E" width="0.471" height="3.502"/>
	<path fill="#91BF3E" d="M-24.507,32.986c0.364-0.04,0.676-0.073,0.97-0.073c0.644,0,0.943,0.297,0.943,0.809v1.566
		c-0.277,0.088-0.716,0.216-1.268,0.216c-0.511,0-0.837-0.269-0.837-0.761c0-0.424,0.258-0.696,0.884-0.752l0.749-0.066v-0.216
		c0-0.347-0.151-0.495-0.471-0.495c-0.247,0-0.542,0.026-0.916,0.066L-24.507,32.986z M-23.066,34.221l-0.699,0.058
		c-0.343,0.033-0.452,0.189-0.452,0.465c0,0.277,0.136,0.464,0.37,0.471c0.295,0,0.596-0.066,0.78-0.116V34.221z"/>
	<path fill="#91BF3E" d="M-21.952,32.007h0.471v0.399h-0.471V32.007z M-21.952,32.96h0.471v2.501h-0.471V32.96z"/>
</g>
</svg>
